<svg width="27" height="25" viewBox="0 0 27 25" fill="none" xmlns="http://www.w3.org/2000/svg">
<g style="mix-blend-mode:overlay" clip-path="url(#clip0_58_270)">
<path d="M19.828 14.9315H18.6925L18.2901 14.5869C19.6986 13.132 20.5466 11.2431 20.5466 9.18838C20.5466 4.60668 16.3642 0.892822 11.2043 0.892822C6.04453 0.892822 1.86206 4.60668 1.86206 9.18838C1.86206 13.7701 6.04453 17.4839 11.2043 17.4839C13.5184 17.4839 15.6455 16.731 17.284 15.4802L17.6721 15.8376V16.8458L24.8585 23.2143L27 21.3127L19.828 14.9315V14.9315ZM11.2043 14.9315C7.62553 14.9315 4.73661 12.3662 4.73661 9.18838C4.73661 6.01054 7.62553 3.4453 11.2043 3.4453C14.7832 3.4453 17.6721 6.01054 17.6721 9.18838C17.6721 12.3662 14.7832 14.9315 11.2043 14.9315Z" fill="black"/>
</g>
<defs>
<clipPath id="clip0_58_270">
<rect width="27" height="25" fill="white"/>
</clipPath>
</defs>
</svg>
