<svg width="27" height="26" viewBox="0 0 27 26" fill="none" xmlns="http://www.w3.org/2000/svg">
<g style="mix-blend-mode:overlay" clip-path="url(#clip0_58_288)">
<path d="M22.6717 19.6022H21.4522L21.0199 19.2008C22.5328 17.5061 23.4436 15.306 23.4436 12.9127C23.4436 7.5759 18.9513 3.25 13.4093 3.25C7.86728 3.25 3.375 7.5759 3.375 12.9127C3.375 18.2494 7.86728 22.5753 13.4093 22.5753C15.8947 22.5753 18.1795 21.6983 19.9393 20.2414L20.3561 20.6577V21.832L28.0748 29.25L30.375 27.035L22.6717 19.6022ZM13.4093 19.6022C9.56539 19.6022 6.46248 16.6142 6.46248 12.9127C6.46248 9.21112 9.56539 6.22313 13.4093 6.22313C17.2532 6.22313 20.3561 9.21112 20.3561 12.9127C20.3561 16.6142 17.2532 19.6022 13.4093 19.6022Z" fill="black"/>
</g>
<defs>
<clipPath id="clip0_58_288">
<rect width="27" height="26" fill="white"/>
</clipPath>
</defs>
</svg>
